<svg version="1.1" id="Layer_1" xmlns="http://www.w3.org/2000/svg" xmlns:xlink="http://www.w3.org/1999/xlink" x="0px" y="0px"
	 width="100%" viewBox="0 0 500 500" enable-background="new 0 0 500 500" xml:space="preserve">
<path fill="#000000" opacity="1.000000" stroke="none" 
	d="
M325.000000,501.000000 
	C216.666687,501.000000 108.833382,501.000000 1.000058,501.000000 
	C1.000039,334.333405 1.000039,167.666794 1.000019,1.000147 
	C167.666565,1.000098 334.333130,1.000098 500.999756,1.000049 
	C500.999847,167.666519 500.999847,334.333038 500.999939,500.999786 
	C442.500000,501.000000 384.000000,501.000000 325.000000,501.000000 
M329.769775,327.321991 
	C321.593506,327.321991 313.417236,327.321991 304.572083,327.321991 
	C305.183197,328.965729 305.719086,330.407074 306.988770,332.079224 
	C308.308868,332.609192 309.628998,333.139191 310.997559,333.688629 
	C310.997559,343.955994 310.905792,353.942871 311.050293,363.926300 
	C311.097137,367.161346 310.790833,369.721375 307.234039,371.034882 
	C306.192810,371.419403 305.626251,373.089264 304.556793,374.563293 
	C319.316071,374.563293 333.030701,374.563293 346.475037,374.563293 
	C347.024170,371.505646 347.680695,368.930664 347.902527,366.318756 
	C348.136322,363.566559 347.954926,360.779083 347.954926,358.088196 
	C340.018646,357.175079 340.139099,357.224854 337.348846,363.976929 
	C336.703766,365.537933 335.095978,367.468231 333.635193,367.763367 
	C330.700348,368.356293 327.561584,367.939697 324.011322,367.939697 
	C324.011322,358.011597 324.114685,348.551208 323.954376,339.095276 
	C323.899414,335.853302 324.251160,333.386871 327.768738,332.025604 
	C328.794495,331.628632 329.167206,329.544098 329.769775,327.321991 
M268.765137,327.316620 
	C260.592194,327.316620 252.419250,327.316620 243.578323,327.316620 
	C244.176270,328.941437 244.711166,330.394897 245.981735,332.077820 
	C247.303436,332.605469 248.625137,333.133087 250.000290,333.682068 
	C250.000290,343.942749 249.912430,353.927704 250.050934,363.909546 
	C250.095627,367.130615 249.835327,369.719543 246.255264,371.029785 
	C245.206253,371.413727 244.626282,373.079163 243.493805,374.614990 
	C252.626923,374.614990 260.670685,374.614990 268.714447,374.614990 
	C268.932526,374.108032 269.150604,373.601044 269.368652,373.094086 
	C267.351807,371.992096 265.334930,370.890137 262.987000,369.607269 
	C263.751160,365.813354 261.618378,361.127777 264.858826,356.394623 
	C268.888123,362.171509 272.343201,367.313812 276.034515,372.280548 
	C276.922241,373.474945 278.555206,374.768616 279.911957,374.845642 
	C285.149689,375.143036 290.414337,374.966400 296.132782,374.966400 
	C288.297974,365.367157 280.939331,356.351288 273.161713,346.822083 
	C276.914642,343.280457 280.079803,340.113647 283.442291,337.172455 
	C286.602234,334.408417 289.970551,331.882599 293.247192,329.251984 
	C292.979279,328.935486 292.711365,328.618958 292.443451,328.302460 
	C286.031677,328.302460 279.619904,328.302460 273.208130,328.302460 
	C272.944702,328.704285 272.681244,329.106140 272.417786,329.507965 
	C273.742767,330.829651 275.067749,332.151306 276.935852,334.014771 
	C271.943451,337.738739 266.803650,341.572632 261.663849,345.406555 
	C262.112183,345.946594 262.560547,346.486664 263.008881,347.026733 
	C263.008881,345.877075 262.971985,344.726044 263.015320,343.578033 
	C263.191895,338.899902 261.235840,333.369385 268.069763,331.323547 
	C268.588898,331.168152 268.594940,329.298889 268.765137,327.316620 
M251.552460,308.470184 
	C280.467133,305.988007 302.910553,292.189178 319.100769,268.544495 
	C331.811920,249.980713 336.914246,229.298523 334.174957,206.634689 
	C331.121552,181.372101 319.730011,160.315811 300.108246,145.078415 
	C268.371582,120.433105 233.496475,117.485138 197.626846,136.206100 
	C180.956818,144.906448 168.352676,158.140076 159.917694,175.073212 
	C151.996704,190.974457 149.094513,207.647202 150.813446,225.497482 
	C152.587280,243.917679 158.087601,260.325104 170.003708,274.791321 
	C181.648743,288.928467 196.030121,298.766754 213.097580,304.655670 
	C225.278259,308.858490 238.022812,309.708954 251.552460,308.470184 
M80.997658,352.497528 
	C80.997620,356.329651 80.838036,360.170502 81.046112,363.991272 
	C81.224739,367.271057 80.700111,369.779114 77.160553,371.047211 
	C76.130096,371.416351 75.514053,372.942261 74.111794,374.674500 
	C76.734512,374.827301 78.182770,374.988770 79.630432,374.983643 
	C89.576714,374.948395 99.531174,375.097137 109.465317,374.720337 
	C113.944855,374.550446 120.389099,368.689148 120.874901,364.810730 
	C121.561943,359.325592 119.796623,354.772736 114.779526,351.805725 
	C114.041763,351.369446 113.590797,350.448212 112.994011,349.735687 
	C120.599571,344.108887 120.585503,338.054108 115.875008,332.862976 
	C113.743805,330.514282 110.171318,328.495850 107.073105,328.198456 
	C99.816322,327.501831 92.451141,327.922791 85.129829,327.916534 
	C82.709930,327.914459 80.276810,327.863220 77.878632,328.112488 
	C77.221794,328.180786 76.380936,329.171051 76.166885,329.897949 
	C76.014030,330.417023 76.691299,331.725891 77.127800,331.789276 
	C81.771790,332.463409 80.995804,335.923157 80.997169,339.002930 
	C80.999023,343.168243 80.997643,347.333588 80.997658,352.497528 
M134.940918,336.509766 
	C127.900146,348.421173 129.629257,362.016815 139.038727,371.609863 
	C146.530518,379.247803 167.479950,378.606598 174.047440,368.182434 
	C178.888351,360.498718 180.131897,352.467041 177.381088,343.744171 
	C174.777802,335.489197 169.404114,329.840424 161.331360,327.205872 
	C158.372177,326.240143 154.840744,327.146606 151.586594,326.941528 
	C144.668350,326.505493 138.385254,329.935547 134.940918,336.509766 
M220.171921,328.032898 
	C215.883545,327.673523 211.534378,326.712677 207.325302,327.138062 
	C203.719528,327.502472 199.628143,328.648193 196.876785,330.852753 
	C187.970963,337.988556 185.374084,347.431671 187.858536,358.668243 
	C189.650482,366.772736 193.760284,372.366241 201.647629,375.076385 
	C210.795258,378.219543 219.464249,377.582214 227.152573,371.337830 
	C238.612518,362.030090 238.607101,337.026245 220.171921,328.032898 
M379.487549,374.993469 
	C383.231567,374.993469 386.975586,374.993469 390.719604,374.993469 
	C390.955078,374.402466 391.190582,373.811462 391.426056,373.220428 
	C389.411530,371.811584 387.396973,370.402710 385.118103,368.808960 
	C383.108215,352.176697 393.426941,340.488007 403.337158,328.279724 
	C396.548981,328.279724 390.463715,328.279724 384.378479,328.279724 
	C384.110992,328.660919 383.843475,329.042084 383.575989,329.423279 
	C385.173431,330.877563 386.770905,332.331848 388.541931,333.944153 
	C386.078827,338.748718 383.500153,343.778687 380.665466,349.308014 
	C377.647247,343.334961 375.015228,338.126221 372.352112,332.855927 
	C373.574738,332.004181 374.964996,331.035645 376.355225,330.067139 
	C376.003479,329.547516 375.651733,329.027924 375.299988,328.508301 
	C368.324097,328.508301 361.348175,328.508301 353.955627,328.508301 
	C363.156219,340.830658 373.016602,352.603973 372.202576,367.866211 
	C369.747925,370.354614 368.155731,371.968658 366.563538,373.582733 
	C366.907867,374.052979 367.252197,374.523193 367.596497,374.993439 
	C371.233643,374.993439 374.870789,374.993439 379.487549,374.993469 
z"/>
<path fill="#5B131F" opacity="1.000000" stroke="none" 
	d="
M251.209854,308.536011 
	C238.022812,309.708954 225.278259,308.858490 213.097580,304.655670 
	C196.030121,298.766754 181.648743,288.928467 170.003708,274.791321 
	C158.087601,260.325104 152.587280,243.917679 150.813446,225.497482 
	C149.094513,207.647202 151.996704,190.974457 159.917694,175.073212 
	C168.352676,158.140076 180.956818,144.906448 197.626846,136.206100 
	C233.496475,117.485138 268.371582,120.433105 300.108246,145.078415 
	C319.730011,160.315811 331.121552,181.372101 334.174957,206.634689 
	C336.914246,229.298523 331.811920,249.980713 319.100769,268.544495 
	C302.910553,292.189178 280.467133,305.988007 251.209854,308.536011 
M205.715622,136.093369 
	C193.582855,142.123444 182.732834,149.739182 174.047241,160.359772 
	C162.606567,174.349258 155.289047,190.165848 154.132645,208.152191 
	C152.160553,238.825165 161.490799,265.378113 185.898911,285.196167 
	C204.281189,300.121582 225.331757,307.529663 249.318344,304.943695 
	C274.797089,302.196869 296.155273,291.836975 312.186066,271.304230 
	C329.363281,249.303101 335.071960,224.690033 329.044312,197.541290 
	C324.165955,175.569153 311.898102,158.136475 294.059204,144.750916 
	C280.055206,134.242889 263.896484,128.608673 246.509399,127.768547 
	C232.660812,127.099388 219.186432,130.134903 205.715622,136.093369 
z"/>
<path fill="#B00A2E" opacity="1.000000" stroke="none" 
	d="
M80.997658,351.998230 
	C80.997643,347.333588 80.999023,343.168243 80.997169,339.002930 
	C80.995804,335.923157 81.771790,332.463409 77.127800,331.789276 
	C76.691299,331.725891 76.014030,330.417023 76.166885,329.897949 
	C76.380936,329.171051 77.221794,328.180786 77.878632,328.112488 
	C80.276810,327.863220 82.709930,327.914459 85.129829,327.916534 
	C92.451141,327.922791 99.816322,327.501831 107.073105,328.198456 
	C110.171318,328.495850 113.743805,330.514282 115.875008,332.862976 
	C120.585503,338.054108 120.599571,344.108887 112.994011,349.735687 
	C113.590797,350.448212 114.041763,351.369446 114.779526,351.805725 
	C119.796623,354.772736 121.561943,359.325592 120.874901,364.810730 
	C120.389099,368.689148 113.944855,374.550446 109.465317,374.720337 
	C99.531174,375.097137 89.576714,374.948395 79.630432,374.983643 
	C78.182770,374.988770 76.734512,374.827301 74.111794,374.674500 
	C75.514053,372.942261 76.130096,371.416351 77.160553,371.047211 
	C80.700111,369.779114 81.224739,367.271057 81.046112,363.991272 
	C80.838036,360.170502 80.997620,356.329651 80.997658,351.998230 
M94.976891,368.773407 
	C95.907501,368.800903 96.906883,369.063110 97.756477,368.814148 
	C100.945183,367.879730 105.300652,369.255768 106.663383,364.552246 
	C107.743500,360.824158 106.813286,357.261139 103.640617,355.422394 
	C101.104263,353.952484 97.704552,353.972290 94.270531,353.242126 
	C94.270531,358.906128 94.270531,363.645905 94.976891,368.773407 
M100.143677,334.020477 
	C98.131538,334.477661 96.119408,334.934845 94.349091,335.337097 
	C94.349091,339.848145 94.349091,343.773895 94.349091,349.499054 
	C98.523880,347.181702 102.867691,346.149292 104.637978,343.437103 
	C106.825630,340.085480 104.618675,336.281708 100.143677,334.020477 
z"/>
<path fill="#B00C30" opacity="1.000000" stroke="none" 
	d="
M268.839478,328.226288 
	C268.594940,329.298889 268.588898,331.168152 268.069763,331.323547 
	C261.235840,333.369385 263.191895,338.899902 263.015320,343.578033 
	C262.971985,344.726044 263.008881,345.877075 263.008881,347.026733 
	C262.560547,346.486664 262.112183,345.946594 261.663849,345.406555 
	C266.803650,341.572632 271.943451,337.738739 276.935852,334.014771 
	C275.067749,332.151306 273.742767,330.829651 272.417786,329.507965 
	C272.681244,329.106140 272.944702,328.704285 273.208130,328.302460 
	C279.619904,328.302460 286.031677,328.302460 292.443451,328.302460 
	C292.711365,328.618958 292.979279,328.935486 293.247192,329.251984 
	C289.970551,331.882599 286.602234,334.408417 283.442291,337.172455 
	C280.079803,340.113647 276.914642,343.280457 273.161713,346.822083 
	C280.939331,356.351288 288.297974,365.367157 296.132782,374.966400 
	C290.414337,374.966400 285.149689,375.143036 279.911957,374.845642 
	C278.555206,374.768616 276.922241,373.474945 276.034515,372.280548 
	C272.343201,367.313812 268.888123,362.171509 264.858826,356.394623 
	C261.618378,361.127777 263.751160,365.813354 262.987000,369.607269 
	C265.334930,370.890137 267.351807,371.992096 269.368652,373.094086 
	C269.150604,373.601044 268.932526,374.108032 268.714447,374.614990 
	C260.670685,374.614990 252.626923,374.614990 243.493805,374.614990 
	C244.626282,373.079163 245.206253,371.413727 246.255264,371.029785 
	C249.835327,369.719543 250.095627,367.130615 250.050934,363.909546 
	C249.912430,353.927704 250.000290,343.942749 250.000290,333.682068 
	C248.625137,333.133087 247.303436,332.605469 245.495697,331.537598 
	C245.800568,329.980621 246.574432,328.098572 247.384979,328.082642 
	C254.532776,327.942108 261.687073,328.133240 268.839478,328.226288 
z"/>
<path fill="#B00C30" opacity="1.000000" stroke="none" 
	d="
M135.199051,336.228699 
	C138.385254,329.935547 144.668350,326.505493 151.586594,326.941528 
	C154.840744,327.146606 158.372177,326.240143 161.331360,327.205872 
	C169.404114,329.840424 174.777802,335.489197 177.381088,343.744171 
	C180.131897,352.467041 178.888351,360.498718 174.047440,368.182434 
	C167.479950,378.606598 146.530518,379.247803 139.038727,371.609863 
	C129.629257,362.016815 127.900146,348.421173 135.199051,336.228699 
M164.556015,355.921082 
	C165.173279,348.298950 164.198456,341.184631 158.123795,335.688080 
	C154.757874,332.642487 148.922073,333.493713 147.303787,337.691925 
	C143.789490,346.808899 143.640976,355.995575 148.083679,364.956360 
	C149.924957,368.670074 153.319351,368.853424 156.921982,369.072296 
	C160.608643,369.296356 161.323105,366.588623 162.229141,364.258911 
	C163.166504,361.848694 163.527344,359.214233 164.556015,355.921082 
z"/>
<path fill="#B00C30" opacity="1.000000" stroke="none" 
	d="
M220.531235,328.179321 
	C238.607101,337.026245 238.612518,362.030090 227.152573,371.337830 
	C219.464249,377.582214 210.795258,378.219543 201.647629,375.076385 
	C193.760284,372.366241 189.650482,366.772736 187.858536,358.668243 
	C185.374084,347.431671 187.970963,337.988556 196.876785,330.852753 
	C199.628143,328.648193 203.719528,327.502472 207.325302,327.138062 
	C211.534378,326.712677 215.883545,327.673523 220.531235,328.179321 
M200.994415,352.358154 
	C202.113129,356.427917 203.131149,360.528809 204.377533,364.559113 
	C205.756790,369.019073 209.634659,369.715302 213.189667,368.784485 
	C215.391159,368.208130 217.436722,365.782745 218.816452,363.699921 
	C220.017807,361.886322 220.480621,359.425720 220.759384,357.187408 
	C221.730118,349.392822 220.715149,341.972809 214.861710,336.158966 
	C210.875229,332.199463 205.580200,332.963928 203.670349,338.044739 
	C202.088730,342.252319 201.835464,346.959259 200.994415,352.358154 
z"/>
<path fill="#B00A2E" opacity="1.000000" stroke="none" 
	d="
M329.839264,328.233124 
	C329.167206,329.544098 328.794495,331.628632 327.768738,332.025604 
	C324.251160,333.386871 323.899414,335.853302 323.954376,339.095276 
	C324.114685,348.551208 324.011322,358.011597 324.011322,367.939697 
	C327.561584,367.939697 330.700348,368.356293 333.635193,367.763367 
	C335.095978,367.468231 336.703766,365.537933 337.348846,363.976929 
	C340.139099,357.224854 340.018646,357.175079 347.954926,358.088196 
	C347.954926,360.779083 348.136322,363.566559 347.902527,366.318756 
	C347.680695,368.930664 347.024170,371.505646 346.475037,374.563293 
	C333.030701,374.563293 319.316071,374.563293 304.556793,374.563293 
	C305.626251,373.089264 306.192810,371.419403 307.234039,371.034882 
	C310.790833,369.721375 311.097137,367.161346 311.050293,363.926300 
	C310.905792,353.942871 310.997559,343.955994 310.997559,333.688629 
	C309.628998,333.139191 308.308868,332.609192 306.503052,331.538757 
	C306.807159,329.982880 307.580078,328.103088 308.389404,328.087280 
	C315.535675,327.947845 322.688416,328.139404 329.839264,328.233124 
z"/>
<path fill="#B00C30" opacity="1.000000" stroke="none" 
	d="
M378.997742,374.993469 
	C374.870789,374.993439 371.233643,374.993439 367.596497,374.993439 
	C367.252197,374.523193 366.907867,374.052979 366.563538,373.582733 
	C368.155731,371.968658 369.747925,370.354614 372.202576,367.866211 
	C373.016602,352.603973 363.156219,340.830658 353.955627,328.508301 
	C361.348175,328.508301 368.324097,328.508301 375.299988,328.508301 
	C375.651733,329.027924 376.003479,329.547516 376.355225,330.067139 
	C374.964996,331.035645 373.574738,332.004181 372.352112,332.855927 
	C375.015228,338.126221 377.647247,343.334961 380.665466,349.308014 
	C383.500153,343.778687 386.078827,338.748718 388.541931,333.944153 
	C386.770905,332.331848 385.173431,330.877563 383.575989,329.423279 
	C383.843475,329.042084 384.110992,328.660919 384.378479,328.279724 
	C390.463715,328.279724 396.548981,328.279724 403.337158,328.279724 
	C393.426941,340.488007 383.108215,352.176697 385.118103,368.808960 
	C387.396973,370.402710 389.411530,371.811584 391.426056,373.220428 
	C391.190582,373.811462 390.955078,374.402466 390.719604,374.993469 
	C386.975586,374.993469 383.231567,374.993469 378.997742,374.993469 
z"/>
<path fill="#F9D8C4" opacity="1.000000" stroke="none" 
	d="
M268.802307,327.771454 
	C261.687073,328.133240 254.532776,327.942108 247.384979,328.082642 
	C246.574432,328.098572 245.800568,329.980621 245.127869,331.422882 
	C244.711166,330.394897 244.176270,328.941437 243.578323,327.316620 
	C252.419250,327.316620 260.592194,327.316620 268.802307,327.771454 
z"/>
<path fill="#F9D8C4" opacity="1.000000" stroke="none" 
	d="
M329.804504,327.777557 
	C322.688416,328.139404 315.535675,327.947845 308.389404,328.087280 
	C307.580078,328.103088 306.807159,329.982880 306.136169,331.423340 
	C305.719086,330.407074 305.183197,328.965729 304.572083,327.321991 
	C313.417236,327.321991 321.593506,327.321991 329.804504,327.777557 
z"/>
<path fill="#000000" opacity="1.000000" stroke="none" 
	d="
M206.069977,135.953186 
	C219.186432,130.134903 232.660812,127.099388 246.509399,127.768547 
	C263.896484,128.608673 280.055206,134.242889 294.059204,144.750916 
	C311.898102,158.136475 324.165955,175.569153 329.044312,197.541290 
	C335.071960,224.690033 329.363281,249.303101 312.186066,271.304230 
	C296.155273,291.836975 274.797089,302.196869 249.318344,304.943695 
	C225.331757,307.529663 204.281189,300.121582 185.898911,285.196167 
	C161.490799,265.378113 152.160553,238.825165 154.132645,208.152191 
	C155.289047,190.165848 162.606567,174.349258 174.047241,160.359772 
	C182.732834,149.739182 193.582855,142.123444 206.069977,135.953186 
M307.992950,204.052597 
	C307.947205,201.049606 307.901489,198.046631 307.987366,194.270996 
	C307.109467,193.510147 306.348877,192.391403 305.330963,192.057892 
	C302.650238,191.179550 299.857697,190.642441 296.756805,189.209900 
	C296.178680,187.954590 295.322083,186.751694 295.074036,185.434235 
	C294.298096,181.312881 293.751831,177.148300 292.782776,172.350418 
	C290.826447,171.533859 288.928040,170.516922 286.904724,169.932083 
	C268.846802,164.712372 250.778259,159.527786 232.672485,154.477585 
	C231.151184,154.053268 228.837631,154.049683 227.733765,154.919159 
	C215.384842,164.645950 203.518234,175.016846 190.835938,184.274826 
	C184.752045,188.716019 183.182419,193.763458 183.972305,200.471390 
	C184.029373,200.955978 183.903320,201.462143 183.168716,201.970184 
	C180.061447,204.539093 176.861771,207.007675 173.900192,209.734818 
	C172.944748,210.614624 172.196686,212.134064 172.071701,213.430161 
	C171.508026,219.275589 171.201996,225.145859 170.228104,231.386505 
	C165.201065,235.639862 166.919785,241.728180 165.917419,247.089249 
	C164.865128,252.717560 167.690109,255.171982 172.731659,256.552368 
	C186.171677,260.232208 199.468201,264.455566 212.963577,267.908600 
	C228.289749,271.830078 243.732132,275.328247 259.210022,278.603912 
	C262.977997,279.401367 266.678162,278.324005 269.743835,274.919891 
	C277.075165,266.779236 284.922943,259.105835 292.435242,251.124268 
	C293.867554,249.602478 294.716614,247.531693 296.083893,245.100708 
	C302.095978,238.221359 307.559021,230.733932 314.292938,224.654083 
	C319.730499,219.744690 319.699982,214.785065 318.218903,208.258896 
	C317.111572,207.493057 316.100739,206.368683 314.876038,206.039108 
	C312.615906,205.430939 310.230347,205.289108 307.992950,204.052597 
z"/>
<path fill="#000000" opacity="1.000000" stroke="none" 
	d="
M94.623711,368.579529 
	C94.270531,363.645905 94.270531,358.906128 94.270531,353.242126 
	C97.704552,353.972290 101.104263,353.952484 103.640617,355.422394 
	C106.813286,357.261139 107.743500,360.824158 106.663383,364.552246 
	C105.300652,369.255768 100.945183,367.879730 97.756477,368.814148 
	C96.906883,369.063110 95.907501,368.800903 94.623711,368.579529 
z"/>
<path fill="#000000" opacity="1.000000" stroke="none" 
	d="
M100.541306,334.051575 
	C104.618675,336.281708 106.825630,340.085480 104.637978,343.437103 
	C102.867691,346.149292 98.523880,347.181702 94.349091,349.499054 
	C94.349091,343.773895 94.349091,339.848145 94.349091,335.337097 
	C96.119408,334.934845 98.131538,334.477661 100.541306,334.051575 
z"/>
<path fill="#000000" opacity="1.000000" stroke="none" 
	d="
M164.348175,356.299469 
	C163.527344,359.214233 163.166504,361.848694 162.229141,364.258911 
	C161.323105,366.588623 160.608643,369.296356 156.921982,369.072296 
	C153.319351,368.853424 149.924957,368.670074 148.083679,364.956360 
	C143.640976,355.995575 143.789490,346.808899 147.303787,337.691925 
	C148.922073,333.493713 154.757874,332.642487 158.123795,335.688080 
	C164.198456,341.184631 165.173279,348.298950 164.348175,356.299469 
z"/>
<path fill="#000000" opacity="1.000000" stroke="none" 
	d="
M200.994049,351.901550 
	C201.835464,346.959259 202.088730,342.252319 203.670349,338.044739 
	C205.580200,332.963928 210.875229,332.199463 214.861710,336.158966 
	C220.715149,341.972809 221.730118,349.392822 220.759384,357.187408 
	C220.480621,359.425720 220.017807,361.886322 218.816452,363.699921 
	C217.436722,365.782745 215.391159,368.208130 213.189667,368.784485 
	C209.634659,369.715302 205.756790,369.019073 204.377533,364.559113 
	C203.131149,360.528809 202.113129,356.427917 200.994049,351.901550 
z"/>
<path fill="#B00B2E" opacity="1.000000" stroke="none" 
	d="
M183.862396,201.958267 
	C183.903320,201.462143 184.029373,200.955978 183.972305,200.471390 
	C183.182419,193.763458 184.752045,188.716019 190.835938,184.274826 
	C203.518234,175.016846 215.384842,164.645950 227.733765,154.919159 
	C228.837631,154.049683 231.151184,154.053268 232.672485,154.477585 
	C250.778259,159.527786 268.846802,164.712372 286.904724,169.932083 
	C288.928040,170.516922 290.826447,171.533859 292.952759,173.051514 
	C292.198517,175.208954 291.513611,176.910873 290.311676,178.082291 
	C281.756653,186.420013 273.037842,194.590073 264.511169,202.956177 
	C262.462280,204.966507 259.602295,207.420593 259.435394,209.831238 
	C259.002075,216.089981 259.859436,222.438065 260.201721,228.750504 
	C260.686249,228.804611 261.170746,228.858719 261.655273,228.912827 
	C268.555359,221.586899 275.455444,214.260971 282.650024,207.310547 
	C277.158447,214.490829 271.407928,221.326340 265.571869,228.088028 
	C262.425049,231.733948 258.743103,232.496429 253.928589,231.085464 
	C234.157272,225.291183 214.307037,219.759247 194.429718,214.336472 
	C184.693497,211.680298 184.637878,211.884186 183.862396,201.958267 
M251.014877,221.616592 
	C250.506683,219.127609 250.707993,215.035049 249.362045,214.439545 
	C244.647095,212.353439 239.398804,211.472778 233.959747,210.030014 
	C233.646301,213.725601 233.397079,216.664047 233.095566,220.219208 
	C238.367813,221.519745 243.460983,222.853180 248.604706,223.949402 
	C249.263458,224.089767 250.185364,222.995453 251.014877,221.616592 
z"/>
<path fill="#C7A39C" opacity="1.000000" stroke="none" 
	d="
M183.515564,201.964233 
	C184.637878,211.884186 184.693497,211.680298 194.429718,214.336472 
	C214.307037,219.759247 234.157272,225.291183 253.928589,231.085464 
	C258.743103,232.496429 262.425049,231.733948 265.571869,228.088028 
	C271.407928,221.326340 277.158447,214.490829 282.636902,207.347473 
	C282.329193,207.008881 282.439178,206.948822 282.720032,207.286896 
	C284.658264,205.749634 286.315674,203.874283 288.119690,201.696014 
	C291.214081,197.585205 294.161896,193.777328 297.109711,189.969437 
	C299.857697,190.642441 302.650238,191.179550 305.330963,192.057892 
	C306.348877,192.391403 307.109467,193.510147 307.584595,194.684143 
	C306.604767,195.405182 305.916107,195.598755 305.466949,196.037521 
	C291.932495,209.258957 278.377258,222.459778 264.937103,235.776672 
	C261.396271,239.285049 260.757568,247.270538 262.930908,251.817184 
	C268.228027,246.918930 273.698059,241.900116 279.123230,236.833221 
	C284.758820,231.569717 290.351044,226.259766 295.938507,221.315323 
	C285.648010,232.527161 275.464508,243.474731 265.045685,254.193542 
	C262.907379,256.393433 260.189514,257.103058 256.537201,256.088379 
	C245.331039,252.975143 233.880280,250.756149 222.590179,247.927841 
	C206.832428,243.980286 191.121414,239.843094 175.424072,235.660660 
	C173.183411,235.063675 170.364258,234.508759 170.803116,231.007187 
	C171.201996,225.145859 171.508026,219.275589 172.071701,213.430161 
	C172.196686,212.134064 172.944748,210.614624 173.900192,209.734818 
	C176.861771,207.007675 180.061447,204.539093 183.515564,201.964233 
M249.147842,251.035278 
	C249.376511,251.217865 249.588913,251.430420 249.842163,251.567642 
	C249.937973,251.619537 250.253479,251.506332 250.257217,251.453461 
	C250.518463,247.753693 250.758209,244.052429 250.999756,240.351273 
	C250.340836,240.346207 249.681931,240.341141 249.023010,240.336075 
	C249.023010,243.669449 249.023010,247.002808 249.147842,251.035278 
z"/>
<path fill="#560D18" opacity="1.000000" stroke="none" 
	d="
M170.515610,231.196838 
	C170.364258,234.508759 173.183411,235.063675 175.424072,235.660660 
	C191.121414,239.843094 206.832428,243.980286 222.590179,247.927841 
	C233.880280,250.756149 245.331039,252.975143 256.537201,256.088379 
	C260.189514,257.103058 262.907379,256.393433 265.045685,254.193542 
	C275.464508,243.474731 285.648010,232.527161 296.243439,221.177612 
	C301.053436,215.955627 306.577637,211.966812 307.897034,204.952972 
	C310.230347,205.289108 312.615906,205.430939 314.876038,206.039108 
	C316.100739,206.368683 317.111572,207.493057 317.772217,208.618774 
	C316.642853,209.390152 315.848846,209.687637 315.293701,210.229736 
	C298.934753,226.203781 282.589996,242.192429 266.269653,258.205994 
	C263.453888,260.968842 263.009399,270.628052 265.578705,274.798431 
	C274.279541,266.083221 282.905792,257.395020 291.606445,248.781967 
	C292.829559,247.571152 294.416321,246.727692 295.834747,245.714203 
	C294.716614,247.531693 293.867554,249.602478 292.435242,251.124268 
	C284.922943,259.105835 277.075165,266.779236 269.743835,274.919891 
	C266.678162,278.324005 262.977997,279.401367 259.210022,278.603912 
	C243.732132,275.328247 228.289749,271.830078 212.963577,267.908600 
	C199.468201,264.455566 186.171677,260.232208 172.731659,256.552368 
	C167.690109,255.171982 164.865128,252.717560 165.917419,247.089249 
	C166.919785,241.728180 165.201065,235.639862 170.515610,231.196838 
M194.664810,250.084045 
	C192.114853,254.018951 192.526230,256.840637 196.844177,258.849304 
	C206.787247,263.474701 217.152008,266.805634 228.331436,265.814850 
	C229.964706,265.670105 232.150803,264.219147 232.776627,262.798096 
	C233.223373,261.783630 231.888809,259.191772 230.645889,258.378448 
	C227.252136,256.157684 223.652878,254.004395 219.832611,252.733276 
	C211.855392,250.079041 203.832489,246.861069 194.664810,250.084045 
z"/>
<path fill="#F9D8C4" opacity="1.000000" stroke="none" 
	d="
M295.959320,245.407455 
	C294.416321,246.727692 292.829559,247.571152 291.606445,248.781967 
	C282.905792,257.395020 274.279541,266.083221 265.578705,274.798431 
	C263.009399,270.628052 263.453888,260.968842 266.269653,258.205994 
	C282.589996,242.192429 298.934753,226.203781 315.293701,210.229736 
	C315.848846,209.687637 316.642853,209.390152 317.674133,208.904816 
	C319.699982,214.785065 319.730499,219.744690 314.292938,224.654083 
	C307.559021,230.733932 302.095978,238.221359 295.959320,245.407455 
z"/>
<path fill="#FBD8C5" opacity="1.000000" stroke="none" 
	d="
M282.439178,206.948822 
	C282.439178,206.948822 282.329193,207.008881 282.342346,206.971970 
	C275.455444,214.260971 268.555359,221.586899 261.655273,228.912827 
	C261.170746,228.858719 260.686249,228.804611 260.201721,228.750504 
	C259.859436,222.438065 259.002075,216.089981 259.435394,209.831238 
	C259.602295,207.420593 262.462280,204.966507 264.511169,202.956177 
	C273.037842,194.590073 281.756653,186.420013 290.311676,178.082291 
	C291.513611,176.910873 292.198517,175.208954 293.119629,173.376541 
	C293.751831,177.148300 294.298096,181.312881 295.074036,185.434235 
	C295.322083,186.751694 296.178680,187.954590 296.933258,189.589661 
	C294.161896,193.777328 291.214081,197.585205 287.775391,201.721603 
	C285.669403,203.683014 284.054291,205.315918 282.439178,206.948822 
z"/>
<path fill="#FCDCC7" opacity="1.000000" stroke="none" 
	d="
M307.945007,204.502777 
	C306.577637,211.966812 301.053436,215.955627 296.267181,220.832413 
	C290.351044,226.259766 284.758820,231.569717 279.123230,236.833221 
	C273.698059,241.900116 268.228027,246.918930 262.930908,251.817184 
	C260.757568,247.270538 261.396271,239.285049 264.937103,235.776672 
	C278.377258,222.459778 291.932495,209.258957 305.466949,196.037521 
	C305.916107,195.598755 306.604767,195.405182 307.518799,195.070465 
	C307.901489,198.046631 307.947205,201.049606 307.945007,204.502777 
z"/>
<path fill="#F9D8C4" opacity="1.000000" stroke="none" 
	d="
M251.000122,222.044861 
	C250.185364,222.995453 249.263458,224.089767 248.604706,223.949402 
	C243.460983,222.853180 238.367813,221.519745 233.095566,220.219208 
	C233.397079,216.664047 233.646301,213.725601 233.959747,210.030014 
	C239.398804,211.472778 244.647095,212.353439 249.362045,214.439545 
	C250.707993,215.035049 250.506683,219.127609 251.000122,222.044861 
z"/>
<path fill="#F9D8C4" opacity="1.000000" stroke="none" 
	d="
M249.085419,250.685730 
	C249.023010,247.002808 249.023010,243.669449 249.023010,240.336075 
	C249.681931,240.341141 250.340836,240.346207 250.999756,240.351273 
	C250.758209,244.052429 250.518463,247.753693 250.257217,251.453461 
	C250.253479,251.506332 249.937973,251.619537 249.842163,251.567642 
	C249.588913,251.430420 249.376511,251.217865 249.085419,250.685730 
z"/>
<path fill="#B00B2E" opacity="1.000000" stroke="none" 
	d="
M282.720032,207.286896 
	C284.054291,205.315918 285.669403,203.683014 287.628784,202.024521 
	C286.315674,203.874283 284.658264,205.749634 282.720032,207.286896 
z"/>
<path fill="#F9D8C4" opacity="1.000000" stroke="none" 
	d="
M194.887177,249.751572 
	C203.832489,246.861069 211.855392,250.079041 219.832611,252.733276 
	C223.652878,254.004395 227.252136,256.157684 230.645889,258.378448 
	C231.888809,259.191772 233.223373,261.783630 232.776627,262.798096 
	C232.150803,264.219147 229.964706,265.670105 228.331436,265.814850 
	C217.152008,266.805634 206.787247,263.474701 196.844177,258.849304 
	C192.526230,256.840637 192.114853,254.018951 194.887177,249.751572 
z"/>
</svg>