<?xml version="1.0" standalone="no"?>
<!DOCTYPE svg PUBLIC "-//W3C//DTD SVG 20010904//EN"
 "http://www.w3.org/TR/2001/REC-SVG-20010904/DTD/svg10.dtd">
<svg version="1.0" xmlns="http://www.w3.org/2000/svg"
 width="500.000000pt" height="500.000000pt" viewBox="0 0 500.000000 500.000000"
 preserveAspectRatio="xMidYMid meet">

<g transform="translate(0.000000,500.000000) scale(0.100000,-0.100000)"
fill="#000000" stroke="none">
<path d="M2280 3754 c-218 -42 -378 -123 -519 -264 -121 -121 -204 -270 -248
-448 -22 -86 -22 -289 0 -387 71 -328 308 -588 627 -690 71 -23 109 -28 226
-33 152 -5 236 5 338 40 292 100 512 333 598 633 20 69 23 101 22 240 -1 143
-3 169 -27 248 -97 319 -324 545 -637 635 -67 19 -114 25 -220 27 -74 2 -146
1 -160 -1z m320 -39 c419 -99 701 -450 701 -875 0 -234 -79 -431 -244 -606
-121 -128 -260 -210 -434 -255 -121 -31 -311 -31 -428 0 -264 71 -473 245
-591 494 -59 125 -77 212 -77 377 0 129 2 155 26 233 99 323 353 563 672 632
84 19 295 18 375 0z"/>
<path d="M2080 3309 c-267 -217 -251 -197 -244 -317 3 -53 9 -100 12 -103 4
-4 32 -12 62 -18 30 -6 191 -50 357 -97 200 -57 311 -84 327 -80 30 8 346 350
346 374 -1 16 -2 16 -13 1 -53 -70 -322 -348 -329 -341 -5 5 -12 52 -15 103
l-6 95 172 165 c94 92 171 173 171 182 0 8 -17 22 -37 30 -36 14 -595 168
-604 166 -2 0 -92 -72 -199 -160z m124 -274 c281 -70 359 -94 312 -95 -10 0
-49 9 -87 20 -37 11 -172 45 -301 76 -128 30 -237 59 -242 64 -18 18 18 11
318 -65z m-304 -51 c0 -47 -4 -73 -10 -69 -14 9 -8 145 6 145 2 0 4 -34 4 -76z
m40 -46 c0 -32 -4 -58 -10 -58 -6 0 -10 31 -10 73 0 50 3 67 10 57 5 -8 10
-41 10 -72z m480 -49 c41 -11 78 -23 82 -27 4 -4 4 -28 0 -53 l-7 -47 -85 22
c-80 20 -85 23 -88 50 -4 33 5 76 16 76 4 0 41 -9 82 -21z"/>
<path d="M3055 2923 c-6 -28 -360 -413 -420 -458 l-30 -23 -180 43 c-221 52
-603 150 -667 171 -38 12 -48 20 -48 37 0 21 -1 21 -26 -4 -23 -23 -26 -36
-31 -121 l-6 -96 99 -31 c155 -48 583 -168 644 -180 30 -6 99 -17 153 -25 l98
-13 138 146 c291 308 399 431 378 431 -2 0 -46 -48 -97 -107 -52 -60 -166
-181 -254 -271 -175 -177 -174 -177 -175 -76 l-1 52 270 265 c149 146 270 271
270 276 0 7 -23 11 -54 11 -51 0 -55 -2 -61 -27z m-877 -435 c59 -21 98 -42
122 -66 l34 -34 -23 -19 c-46 -37 -200 -16 -321 44 -53 26 -66 37 -68 59 -8
67 96 74 256 16z"/>
<path d="M838 1733 c-68 -3 -88 -7 -88 -18 0 -8 11 -17 25 -21 l25 -6 0 -187
0 -186 -31 -17 c-17 -10 -27 -22 -24 -28 9 -14 261 -13 327 1 73 16 118 61
118 119 0 34 -6 48 -34 76 -19 19 -41 34 -50 34 -9 0 -16 5 -16 10 0 6 6 10
14 10 25 0 66 59 66 94 0 40 -32 84 -74 101 -38 16 -141 23 -258 18z m191 -79
c12 -15 21 -38 21 -51 0 -36 -42 -73 -85 -73 l-35 0 0 69 c0 64 2 70 23 74 46
9 56 6 76 -19z m8 -196 c17 -15 23 -33 23 -61 0 -57 -22 -77 -82 -77 l-48 0 0
80 0 80 42 0 c29 0 49 -7 65 -22z"/>
<path d="M1440 1724 c-46 -20 -87 -59 -113 -109 -31 -57 -31 -183 0 -241 84
-158 315 -169 408 -19 27 44 30 56 30 134 0 69 -5 94 -22 126 -27 51 -68 90
-115 109 -47 20 -142 20 -188 0z m125 -56 c61 -28 92 -165 61 -271 -47 -161
-196 -77 -196 110 0 134 54 198 135 161z"/>
<path d="M1990 1718 c-150 -76 -171 -322 -37 -422 85 -63 210 -62 296 2 99 74
109 275 18 371 -69 72 -188 93 -277 49z m160 -66 c35 -35 50 -87 50 -172 0
-68 -22 -133 -53 -159 -21 -17 -78 -7 -99 17 -65 73 -74 244 -17 316 29 37 81
36 119 -2z"/>
<path d="M2442 1713 c2 -10 13 -19 26 -21 22 -3 22 -4 22 -190 l0 -187 -31
-17 c-17 -10 -27 -22 -24 -28 4 -6 54 -10 121 -10 107 0 114 1 114 20 0 15 -7
20 -25 20 -26 0 -26 1 -23 72 2 42 8 73 14 75 7 2 42 -39 78 -92 l67 -95 79 0
c72 0 80 2 80 19 0 12 -8 21 -20 23 -13 2 -55 50 -109 123 l-89 120 61 65 c34
36 77 73 94 83 18 9 33 22 33 27 0 6 -38 10 -90 10 -74 0 -90 -3 -90 -15 0 -9
9 -19 19 -23 17 -6 10 -17 -54 -87 l-74 -80 -1 77 c0 76 0 78 30 93 17 9 28
20 25 25 -4 6 -58 10 -121 10 -105 0 -115 -2 -112 -17z"/>
<path d="M3052 1713 c2 -10 13 -19 26 -21 22 -3 22 -4 22 -190 l0 -187 -31
-17 c-17 -10 -27 -22 -24 -28 4 -6 82 -10 204 -10 l199 0 6 31 c12 62 7 136
-10 143 -39 15 -52 6 -69 -45 -19 -56 -19 -56 -92 -62 l-53 -4 0 178 0 178 30
16 c17 9 28 20 25 25 -4 6 -58 10 -121 10 -105 0 -115 -2 -112 -17z"/>
<path d="M3540 1715 c0 -9 10 -19 23 -24 15 -6 43 -50 90 -138 57 -112 67
-138 67 -182 0 -47 -3 -53 -30 -69 -57 -33 -39 -42 85 -42 107 0 115 1 115 19
0 14 -8 21 -27 23 -27 3 -28 5 -31 71 -3 66 -1 70 60 186 51 97 69 123 96 135
18 9 30 21 27 26 -3 6 -46 10 -96 10 -72 0 -89 -3 -89 -15 0 -8 11 -17 25 -21
14 -3 25 -8 25 -10 0 -2 -19 -42 -42 -89 -39 -79 -58 -102 -58 -73 0 7 -17 48
-37 91 -34 72 -35 80 -20 88 37 21 14 29 -83 29 -83 0 -100 -3 -100 -15z"/>
</g>
</svg>
